:SAMPLES-PER-SECOND 30
:FULLY-SPECIFIED
:DEGREES
314
root  26.4269 39.0723 -13.438 166.958 -79.7447 -172.41
RightUpLeg  -1.48667 -11.4005 -3.77542
RightLeg  16.5194 -3.096 1.01476
RightFoot  -6.33902 -7.79928e-005 -0.987246
RightToes  4.01633e-009 0 -3.6325e-017
Spine  7.85163 -1.03455 12.0651
Spine1  10.8996 0.727129 -1.65943
HEad  -6.95894 13.9202 -10.4796
LeftShoulder1  0.226873 2.86684 -29.5047
LeftArm  2.46989 15.4262 -45.6544
LeftForeArm  18.4604 -24.6071 -4.25506
LeftHand  -0.0273414 1.92377 0.510457
RightShoulder  -0.63253 -5.47828 25.3215
RightArm  21.0863 3.89255 46.9471
RightForeArm  -4.16441 25.3379 5.61581
RightHand  -0.87869 4.6289 -10.4397
LeftUpLeg  -16.1248 2.37773 1.48134
LeftLeg  51.3474 -3.31866 -3.98066
LeftFoot  -1.53636 0.250857 -2.82505
LeftToes  -1.95724e-009 9.62483e-011 3.51777e-011
315
root  25.4437 39.1821 -13.7558 169.178 -80.9486 -174.4
RightUpLeg  1.09868 -11.2962 -4.47334
RightLeg  14.6843 -4.22886 1.08033
RightFoot  -7.16769 -0.0159467 -0.886146
RightToes  4.01633e-009 0 -3.6325e-017
Spine  7.36608 -0.771879 11.3228
Spine1  11.0364 0.831469 -1.95552
HEad  -6.70029 13.5321 -9.9956
LeftShoulder1  0.190692 2.9718 -29.722
LeftArm  0.929882 15.0842 -45.4885
LeftForeArm  19.4827 -25.6514 -4.46427
LeftHand  -0.0606333 1.10212 1.52318
RightShoulder  -0.636943 -5.49316 25.3066
RightArm  19.9031 4.33097 46.8543
RightForeArm  -3.05961 27.6742 6.13288
RightHand  -0.930942 4.99153 -10.678
LeftUpLeg  -17.6186 4.23342 0.811022
LeftLeg  42.6342 -4.52065 -4.10104
LeftFoot  -2.53559 0.24382 -2.96857
LeftToes  -1.95724e-009 9.62483e-011 3.51777e-011
316
root  24.4719 39.2811 -14.0163 172.903 -81.5519 -177.663
RightUpLeg  3.40723 -11.2025 -5.07853
RightLeg  12.5059 -4.79892 1.0786
RightFoot  -7.89172 -0.0405725 -0.43897
RightToes  4.01633e-009 0 -3.6325e-017
Spine  6.84649 -0.466765 10.62
Spine1  11.0358 1.1155 -2.88516
HEad  -6.71383 13.646 -8.7216
LeftShoulder1  0.209094 2.9153 -29.4
LeftArm  0.520487 14.7139 -45.7241
LeftForeArm  20.3982 -26.077 -4.50836
LeftHand  -0.0525531 1.56789 1.38389
RightShoulder  -0.626529 -5.45534 25.3879
RightArm  18.8866 4.7065 47.1132
RightForeArm  -2.38636 29.0848 6.43994
RightHand  -0.989817 5.52307 -10.8084
LeftUpLeg  -18.1048 6.22973 -0.00828079
LeftLeg  31.4594 -4.71527 -2.72197
LeftFoot  -2.00506 0.31936 -3.75302
LeftToes  -1.95724e-009 9.62483e-011 3.51777e-011
317
root  23.5274 39.3919 -14.2177 175.749 -81.8507 -179.951
RightUpLeg  5.61121 -10.7538 -5.2825
RightLeg  10.0136 -5.43748 0.873139
RightFoot  -7.9781 -0.0582619 0.148134
RightToes  4.01633e-009 0 -3.6325e-017
Spine  6.54513 -0.304754 9.70505
Spine1  10.7802 1.19535 -3.49005
HEad  -7.30984 14.1114 -8.18045
LeftShoulder1  0.200102 2.93845 -29.2698
LeftArm  0.559821 14.6143 -45.7737
LeftForeArm  21.8298 -26.0413 -4.42382
LeftHand  -0.0516459 0.205765 1.12118
RightShoulder  -0.570829 -5.29347 25.1284
RightArm  18.6909 5.06003 47.7278
RightForeArm  -2.01683 29.6264 6.55483
RightHand  -0.975604 5.18451 -10.9699
LeftUpLeg  -17.573 6.8557 -0.319999
LeftLeg  18.609 -4.05223 -1.45202
LeftFoot  -1.35335 0.389025 -4.36137
LeftToes  -1.95724e-009 9.62483e-011 3.51777e-011
318
root  22.5588 39.4425 -14.3833 177.353 -81.6764 178.682
RightUpLeg  8.2276 -10.3605 -5.53102
RightLeg  7.40117 -5.56548 0.874812
RightFoot  -8.31716 -0.0771483 0.770404
RightToes  4.01633e-009 0 -3.6325e-017
Spine  6.36912 -0.0379371 8.27457
Spine1  10.9862 1.25817 -3.31874
HEad  -7.76608 14.3863 -8.04611
LeftShoulder1  0.190952 2.97069 -29.6926
LeftArm  1.57763 14.4674 -45.2621
LeftForeArm  22.1835 -25.8428 -4.36167
LeftHand  -0.0213759 0.420455 0.456262
RightShoulder  -0.486108 -5.04678 24.6738
RightArm  18.7883 5.45536 48.3225
RightForeArm  -1.86074 29.4561 6.5045
RightHand  -0.888698 5.02952 -10.1717
LeftUpLeg  -16.1535 5.26438 0.320728
LeftLeg  6.2832 -0.556406 -0.925109
LeftFoot  -1.79979 0.343714 -3.98696
LeftToes  -1.95724e-009 9.62483e-011 3.51777e-011
319
root  21.5098 39.3905 -14.4784 174.918 -81.6192 -178.998
RightUpLeg  11.0379 -9.96148 -5.39226
RightLeg  5.48891 -5.93351 0.772604
RightFoot  -8.7884 -0.0893816 1.36925
RightToes  4.01633e-009 0 -3.6325e-017
Spine  6.08645 -0.0586648 7.49332
Spine1  11.6716 1.16284 -3.26973
HEad  -8.00153 14.9064 -7.91089
LeftShoulder1  0.191051 2.96954 -29.6389
LeftArm  1.98004 14.5643 -45.1883
LeftForeArm  22.0064 -25.0276 -4.19033
LeftHand  -0.0191199 -0.0516793 0.411387
RightShoulder  -0.478396 -5.02313 24.6407
RightArm  19.7422 5.87974 48.9079
RightForeArm  -2.9332 28.6945 6.37367
RightHand  -0.965818 5.12865 -10.9272
LeftUpLeg  -14.7069 3.82606 1.30336
LeftLeg  -2.80295 3.29545 -1.08563
LeftFoot  -2.74328 0.378884 -4.85232
LeftToes  -1.95724e-009 9.62483e-011 3.51777e-011
320
root  20.3885 39.191 -14.4895 170.696 -81.969 -174.743
RightUpLeg  13.2178 -9.87634 -5.30247
RightLeg  5.09722 -6.2316 0.758652
RightFoot  -10.2134 -0.0933569 2.41908
RightToes  4.01633e-009 0 -3.6325e-017
Spine  5.57724 -0.202171 7.02877
Spine1  12.07 0.884845 -2.98879
HEad  -8.26554 15.2716 -7.30401
LeftShoulder1  0.207842 2.92015 -29.4794
LeftArm  2.44694 14.5279 -45.3008
LeftForeArm  21.6629 -23.5591 -3.93731
LeftHand  -0.0151156 0.410365 0.334421
RightShoulder  -0.528642 -5.15834 25.1511
RightArm  20.1683 5.69888 49.0497
RightForeArm  -2.75163 27.5801 6.09578
RightHand  -0.940496 5.11225 -10.6672
LeftUpLeg  -14.6272 3.95278 1.58457
LeftLeg  -6.23733 7.51366 -1.32038
LeftFoot  -3.29712 0.48015 -6.51706
LeftToes  -1.95724e-009 9.62483e-011 3.51777e-011
321
root  19.1761 38.8963 -14.449 164.766 -82.7264 -168.908
RightUpLeg  15.4878 -10.2479 -5.58875
RightLeg  5.42969 -6.26772 1.08231
RightFoot  -12.0393 -0.0574055 3.65597
RightToes  4.01633e-009 0 -3.6325e-017
Spine  4.98527 -0.346975 6.76156
Spine1  12.5177 0.607192 -2.68823
HEad  -8.20778 15.1926 -6.8602
LeftShoulder1  0.18055 2.99407 -29.299
LeftArm  3.75941 14.2168 -45.2622
LeftForeArm  21.1753 -22.0963 -3.98538
LeftHand  -0.0341345 1.33199 0.77419
RightShoulder  -0.584955 -5.31009 25.6474
RightArm  19.9214 4.59892 49.0258
RightForeArm  -2.9415 26.0013 5.73081
RightHand  -0.906107 5.3164 -10.1039
LeftUpLeg  -14.9609 4.47947 1.63257
LeftLeg  -4.74527 14.8355 -2.13504
LeftFoot  -2.07157 0.443597 -5.22887
LeftToes  -1.95724e-009 9.62483e-011 3.51777e-011
322
root  17.8897 38.6111 -14.364 159.787 -83.4085 -164.152
RightUpLeg  18.0399 -10.4036 -6.1338
RightLeg  5.61809 -6.16127 1.12467
RightFoot  -13.6514 0.0241726 5.86625
RightToes  4.01633e-009 0 -3.6325e-017
Spine  4.54817 -0.310975 6.29291
Spine1  12.7876 0.608299 -2.60511
HEad  -8.2502 14.812 -6.40834
LeftShoulder1  0.163892 3.04284 -29.3688
LeftArm  3.41737 14.2109 -44.8804
LeftForeArm  22.6119 -20.7196 -4.24663
LeftHand  -0.00681247 0.873011 0.037556
RightShoulder  -0.611824 -5.36668 26.0987
RightArm  20.0218 2.63181 48.5791
RightForeArm  -3.72175 24.2369 5.36257
RightHand  -0.892509 4.85703 -10.3736
LeftUpLeg  -15.5294 5.5039 1.20179
LeftLeg  -0.610735 21.1072 -2.40404
LeftFoot  0.619116 0.0491668 -0.883577
LeftToes  -1.95724e-009 9.62483e-011 3.51777e-011
323
root  16.528 38.4262 -14.238 162.362 -83.618 -167.213
RightUpLeg  20.7844 -10.898 -8.08865
RightLeg  5.87742 -4.71497 1.16425
RightFoot  -14.3655 0.131595 8.63624
RightToes  4.01633e-009 0 -3.6325e-017
Spine  4.12309 0.0416993 5.16485
Spine1  13.2428 1.18916 -3.39143
HEad  -8.68291 14.8447 -5.60633
LeftShoulder1  0.0947011 3.23296 -29.4294
LeftArm  2.01109 14.6552 -44.349
LeftForeArm  23.2591 -19.487 -4.61722
LeftHand  7.7544e-005 1.17018 -0.0617901
RightShoulder  -0.684057 -5.52452 27.1859
RightArm  20.9893 0.788639 47.718
RightForeArm  -4.55756 21.3382 5.23421
RightHand  -0.828743 4.22384 -10.2597
LeftUpLeg  -16.3329 6.23622 0.176994
LeftLeg  4.50038 21.0242 -1.42247
LeftFoot  5.74087 -1.20892 7.80816
LeftToes  -1.95724e-009 9.62483e-011 3.51777e-011
324
root  15.1518 38.215 -14.0685 170.904 -85.2088 -176.62
RightUpLeg  23.1143 -12.2856 -10.9719
RightLeg  8.39845 -3.15988 0.650624
RightFoot  -15.0581 0.310741 12.5409
RightToes  4.01633e-009 0 -3.6325e-017
Spine  4.67937 0.0117844 2.51788
Spine1  12.5624 0.732945 -2.64979
HEad  -8.73108 15.2988 -5.19637
LeftShoulder1  -0.117205 3.82239 -30.9131
LeftArm  1.83639 14.3014 -42.3369
LeftForeArm  22.1925 -17.7396 -5.4099
LeftHand  -0.0662164 1.86688 2.01465
RightShoulder  -0.69036 -5.53011 27.3915
RightArm  19.2053 -0.8962 47.7572
RightForeArm  -2.12531 16.1942 6.17756
RightHand  -0.822098 3.9909 -10.4244
LeftUpLeg  -17.385 7.90374 -2.16112
LeftLeg  11.2525 17.2954 0.420469
LeftFoot  7.84877 -2.27159 13.1959
LeftToes  -1.95724e-009 9.62483e-011 3.51777e-011
325
root  13.8625 38.0909 -13.8399 -155.241 -87.9048 149.345
RightUpLeg  23.1375 -14.161 -13.9353
RightLeg  14.2787 -2.21585 -0.3799
RightFoot  -14.6603 0.410496 18.4086
RightToes  4.01633e-009 0 -3.6325e-017
Spine  4.33749 -0.163639 0.211109
Spine1  12.3563 0.199613 -2.33664
HEad  -8.712 15.2267 -5.43901
LeftShoulder1  -0.125369 3.84137 -31.0025
LeftArm  -2.49724 12.8412 -41.9999
LeftForeArm  25.0789 -14.2647 -6.31869
LeftHand  -0.063051 -0.581602 1.21749
RightShoulder  -0.75126 -5.67635 27.9424
RightArm  13.1057 -2.58675 48.0036
RightForeArm  5.05508 9.73967 6.93887
RightHand  -0.721362 3.79774 -9.3129
LeftUpLeg  -18.069 11.3865 -6.29705
LeftLeg  16.2897 10.8975 2.31181
LeftFoot  4.8176 -2.00315 13.8281
LeftToes  -1.95724e-009 9.62483e-011 3.51777e-011
326
root  12.7294 38.1603 -13.5261 -101.772 -88.636 95.5919
RightUpLeg  20.3978 -12.248 -13.998
RightLeg  22.8695 -4.23788 -2.27208
RightFoot  -10.3281 -0.237432 21.9967
RightToes  4.01633e-009 0 -3.6325e-017
Spine  4.8613 0.216336 1.02551
Spine1  11.809 0.903378 -4.32278
HEad  -8.23234 12.1046 -5.3538
LeftShoulder1  -0.069133 3.69219 -30.5865
LeftArm  -6.51494 11.3975 -42.7599
LeftForeArm  27.6623 -11.3419 -6.49873
LeftHand  -0.103979 -1.02288 1.88337
RightShoulder  -0.742934 -5.65051 27.9306
RightArm  9.35859 -5.27409 48.6414
RightForeArm  8.91166 4.83319 5.99298
RightHand  -0.485512 1.94008 -7.91414
LeftUpLeg  -16.6298 10.8136 -7.39036
LeftLeg  17.8869 10.1288 2.38761
LeftFoot  2.34697 -1.71927 14.1158
LeftToes  -1.95724e-009 9.62483e-011 3.51777e-011
